<svg xmlns="http://www.w3.org/2000/svg" version="1.1" xmlns:xlink="http://www.w3.org/1999/xlink" xmlns:svgjs="http://svgjs.dev/svgjs" width="128" height="128" viewBox="0 0 128 128"><g transform="matrix(0.8046875,0,0,0.8046875,12.760752631578946,19.22043615200149)"><svg viewBox="0 0 95 83" data-background-color="#ffffff" preserveAspectRatio="xMidYMid meet" height="111" width="128" xmlns="http://www.w3.org/2000/svg" xmlns:xlink="http://www.w3.org/1999/xlink"><g id="tight-bounds" transform="matrix(1,0,0,1,-0.24049999999999727,0.11095830675554907)"><svg viewBox="0 0 95.481 82.7780833864889" height="82.7780833864889" width="95.481"><g><svg viewBox="0 0 95.481 82.7780833864889" height="82.7780833864889" width="95.481"><g><svg viewBox="0 0 95.481 82.7780833864889" height="82.7780833864889" width="95.481"><g id="textblocktransform"><svg viewBox="0 0 95.481 82.7780833864889" height="82.7780833864889" width="95.481" id="textblock"><g><svg viewBox="0 0 95.481 82.7780833864889" height="82.7780833864889" width="95.481"><g><svg viewBox="0 0 95.481 82.7780833864889" height="82.7780833864889" width="95.481"><g><svg xmlns="http://www.w3.org/2000/svg" xmlns:xlink="http://www.w3.org/1999/xlink" version="1.1" x="0" y="0" viewBox="5.187 12.539000000000003 89.45293499279794 77.55199999999999" enable-background="new 0 0 100 100" xml:space="preserve" height="82.7780833864889" width="95.481" class="icon-icon-0" data-fill-palette-color="accent" id="icon-0"><g fill="#1ebbd7" data-fill-palette-color="accent"><path fill="#1ebbd7" d="M94.163 54.546c-0.358-0.511-0.94-0.783-1.749-0.835-0.567-0.027-1.071 0.104-1.517 0.403-0.439 0.302-0.719 0.712-0.831 1.233l-3.846 14.21c-0.258 0.917-0.773 1.778-1.55 2.589-0.775 0.81-1.658 1.327-2.642 1.553-0.166 0.076-0.445 0.159-0.837 0.258-0.391 0.103-0.608 0.149-0.646 0.146L70.41 73.529c-0.687-0.039-1.199 0.23-1.538 0.799-0.333 0.565-0.518 1.114-0.547 1.641-0.023 0.446 0.077 1.149 0.308 1.73 0.232 0.581 0.649 0.886 1.258 0.921l11.65 0.661c0.93 0.054 1.884-0.147 2.863-0.598 0.979-0.455 1.909-1.051 2.781-1.79 0.871-0.743 1.63-1.573 2.27-2.49 0.641-0.917 1.067-1.795 1.276-2.637l3.866-14.703 0.004-0.06 0.023-0.427 0.009-0.182C94.676 55.668 94.519 55.052 94.163 54.546z" data-fill-palette-color="accent"></path><path fill="#1ebbd7" d="M82.831 71.89c1.12-0.767 1.854-1.752 2.206-2.949l4.136-16.078 0.006-0.062 0.032-0.604 0.011-0.182c0.09-1.579-0.329-2.921-1.263-4.03-0.933-1.108-2.187-1.708-3.764-1.796-1.174-0.067-2.296 0.215-3.366 0.843-1.069 0.631-1.739 1.546-2.012 2.75L75.1 63.814l-11.041-0.629c-0.407-0.02-0.838 0.087-1.299 0.324-0.46 0.237-0.881 0.538-1.267 0.901-0.387 0.364-0.716 0.763-0.982 1.193s-0.41 0.831-0.435 1.194l-1.149 20.324c-0.046 0.81 0.271 1.458 0.954 1.944 0.686 0.486 1.369 0.746 2.057 0.782 0.809 0.047 1.575-0.214 2.297-0.782 0.723-0.566 1.11-1.316 1.162-2.245l0.83-14.625 13.106 0.743C80.547 73.008 81.713 72.656 82.831 71.89z" data-fill-palette-color="accent"></path><path fill="#1ebbd7" d="M86.572 45.084c3.389-0.626 5.631-3.881 5.006-7.27-0.629-3.39-3.884-5.629-7.272-5.006-3.39 0.628-5.631 3.881-5.004 7.273C79.926 43.468 83.183 45.708 86.572 45.084z" data-fill-palette-color="accent"></path><path fill="#1ebbd7" d="M40.347 60.067h6.965c0 0 1.65-0.014 1.75-1.631 1.51-0.009 2.731-1.236 2.731-2.748 0-1.507-1.214-2.724-2.713-2.743v-1.197H38.579v2.493 0.601 3.454C38.579 58.296 38.579 60.067 40.347 60.067zM50.614 55.688c0 0.854-0.684 1.541-1.534 1.561v-2.407-0.601V54.13C49.93 54.15 50.614 54.835 50.614 55.688z" data-fill-palette-color="accent"></path><path fill="#1ebbd7" d="M36.417 61.897c0 0 0.567 0.679 1.451 0.679h5.458 1.008 5.457c0.888 0 1.453-0.679 1.453-0.679l0.358-0.428c0.566-0.679-0.318-0.679-0.318-0.679h-6.949-1.008-6.946c0 0-0.888 0-0.32 0.679L36.417 61.897z" data-fill-palette-color="accent"></path><rect x="32.8" y="64.043" fill="#1ebbd7" width="21.355" height="24.403" data-fill-palette-color="accent"></rect><path fill="#1ebbd7" d="M29.541 28.26c-0.893-0.6-1.826-1.075-2.798-1.417s-1.8-0.512-2.482-0.512H13.306c-0.895 0-1.828 0.17-2.799 0.512-0.972 0.342-1.854 0.803-2.642 1.379-0.786 0.579-1.431 1.3-1.929 2.166-0.502 0.869-0.749 1.802-0.749 2.799v21.674c0 0.633 0.222 1.222 0.67 1.774 0.447 0.551 0.984 0.827 1.617 0.827 0.312 0 0.773-0.159 1.377-0.475 0.605-0.312 0.907-0.68 0.907-1.103v-19.31c0-0.263 0.089-0.458 0.274-0.591 0.184-0.13 0.407-0.195 0.672-0.195 0.207 0 0.419 0.051 0.628 0.156 0.209 0.107 0.316 0.314 0.316 0.63V87.49c0 0.739 0.316 1.355 0.945 1.854 0.632 0.498 1.288 0.747 1.97 0.747 0.737 0 1.484-0.249 2.247-0.747 0.761-0.498 1.143-1.222 1.143-2.166v-30.66c0.107-0.052 0.184-0.106 0.237-0.157l0.472-0.237h0.079 0.079c0.158 0.051 0.525 0.186 1.104 0.395V87.49c0 0.79 0.327 1.418 0.984 1.893 0.656 0.471 1.352 0.708 2.087 0.708 0.632 0 1.3-0.194 2.011-0.589 0.709-0.396 1.065-1.013 1.065-1.854V36.734c0-0.158 0.128-0.354 0.392-0.591 0.262-0.235 0.5-0.354 0.709-0.354 0.107 0 0.277 0.051 0.514 0.156 0.237 0.107 0.354 0.265 0.354 0.473v18.838c0 0.581 0.261 1.023 0.789 1.341 0.523 0.315 0.996 0.47 1.419 0.47 0.631 0 1.195-0.194 1.694-0.589 0.5-0.396 0.749-0.934 0.749-1.617V32.793c0-0.84-0.302-1.654-0.907-2.442C31.182 29.561 30.435 28.867 29.541 28.26z" data-fill-palette-color="accent"></path><path fill="#1ebbd7" d="M18.822 24.44c1.682 0 3.087-0.553 4.217-1.656 1.128-1.103 1.694-2.496 1.694-4.176 0-1.577-0.565-2.982-1.694-4.219-1.13-1.233-2.535-1.85-4.217-1.85-0.789 0-1.536 0.171-2.247 0.512-0.709 0.342-1.338 0.789-1.891 1.338-0.551 0.553-0.986 1.197-1.3 1.931-0.314 0.737-0.473 1.498-0.473 2.288 0 1.68 0.591 3.073 1.773 4.176C15.865 23.887 17.245 24.44 18.822 24.44z" data-fill-palette-color="accent"></path></g></svg></g></svg></g></svg></g></svg></g></svg></g><g></g></svg></g><defs></defs></svg><rect width="95.481" height="82.7780833864889" fill="none" stroke="none" visibility="hidden"></rect></g></svg></g></svg>